<svg width="1980" height="1200" viewBox="0 0 1980 1200" fill="none" xmlns="http://www.w3.org/2000/svg">
<g clip-path="url(#clip0_854_291)">
<rect width="1980" height="1200" fill="#FEFAF9"/>
<g filter="url(#filter0_f_854_291)">
<path d="M347.795 830.539C332.705 808.532 303.405 682.466 226.981 675.579C176.296 671.012 158.599 730.643 107.767 728.205C76.5418 726.707 59.4309 687.668 31.9394 702.551C2.78014 718.336 -1.56282 758.132 16.3765 786.018C30.0124 807.215 57.8056 795.219 74.4735 814.124C117.468 862.891 -9.08975 875.854 -45.0237 930.035C-88.2206 995.166 -147.358 1051.42 -109.16 1119.6C-58.1969 1210.57 35.1706 1026.13 139.359 1021.99C225.614 1018.57 269.011 1086.91 354.299 1073.59C491.823 1052.09 661.898 937.85 598.481 813.943C569.205 756.742 521.883 680.734 467.292 714.628C425.934 740.307 467.005 777.934 438.902 836.01C410.799 894.086 362.885 852.545 347.795 830.539Z" fill="url(#paint0_linear_854_291)"/>
</g>
<g filter="url(#filter1_f_854_291)">
<circle cx="1359" cy="333" r="313" fill="url(#paint1_radial_854_291)"/>
<circle cx="1359" cy="333" r="312.995" stroke="black" stroke-width="0.01"/>
</g>
<g filter="url(#filter2_f_854_291)">
<path d="M1750.58 629.461C1869.76 665.678 1899.21 955.868 1934.53 890.027C1969.86 824.186 2063.19 727.802 2153.94 868.99C2153.94 868.99 2189.83 1003.69 2157.02 1078.77C2118.52 1166.88 2056.82 1217.32 1961.27 1228.12C1823.17 1243.74 1777.83 881.266 1694.55 992.524C1659.83 1038.9 1707.89 1100.83 1663.02 1137.49C1610.37 1180.51 1555.9 1132.79 1490.47 1114.29C1390.92 1086.14 1308.8 1078.62 1257.04 989.053L1255.98 987.227C1225.33 934.203 1199.1 888.846 1225.05 833.146C1267.56 741.902 1401.57 941.161 1479.07 876.922C1543.03 823.9 1463.61 728.02 1521.53 668.456C1584.79 603.406 1663.76 603.08 1750.58 629.461Z" fill="url(#paint2_linear_854_291)"/>
</g>
<g filter="url(#filter3_f_854_291)">
<path d="M1232.15 51.3855C1174.25 217.91 1386.49 535.061 1386.49 535.061C1386.49 535.061 1444.32 698.51 1642.24 623.989C1840.16 549.469 1763.14 379.351 1763.14 379.351C1763.14 379.351 1670.42 -75.4151 1694.98 -146.032C1719.53 -216.648 1745.23 -291.287 1697.73 -360.079C1666.77 -404.926 1635.33 -432.564 1580.97 -436.513C1525.04 -440.575 1484.08 -419.751 1451.72 -373.953C1410.64 -315.821 1459.13 -292.22 1460.08 -191.874C1461.02 -91.5281 1290.06 -115.139 1232.15 51.3855Z" fill="url(#paint3_linear_854_291)"/>
</g>
<g filter="url(#filter4_f_854_291)">
<path d="M488.047 -92C366.293 -92 207.554 130.829 207.554 130.829C207.554 130.829 114.057 210.057 207.554 328.899C301.052 447.741 394.55 353.658 394.55 353.658C394.55 353.658 670.16 180.346 721.791 180.346C773.422 180.346 827.938 180.174 862.037 130.829C884.267 98.6597 895.164 70.2979 885.412 31.7938C875.376 -7.82669 852.503 -31.1248 815.289 -42.4825C768.053 -56.8988 763.657 -17.7237 698.417 7.03501C633.176 31.7938 609.802 -92 488.047 -92Z" fill="url(#paint4_linear_854_291)"/>
</g>
<g filter="url(#filter5_d_854_291)">
<path d="M745.49 1155.47C604.172 1183.57 415.417 905.384 415.417 991.35C415.417 1077.32 372.979 1225.8 203.226 1132.02C203.226 1132.02 92.963 1014.97 85.343 921.014C76.4001 810.741 111.723 726.043 203.226 663.118C335.481 572.169 579.971 914.999 604.03 756.899C614.059 690.993 531.188 654.349 556.877 592.783C587.025 520.528 668.666 539.28 745.49 522.447C862.381 496.836 950.215 459.797 1051.99 522.447L1054.06 523.724C1114.32 560.809 1165.86 592.531 1169.87 663.118C1176.44 778.748 930.824 649.617 886.95 756.899C850.738 845.446 984.154 899.456 957.68 991.35C928.769 1091.71 848.431 1134.99 745.49 1155.47Z" fill="url(#paint5_linear_854_291)"/>
</g>
<g filter="url(#filter6_f_854_291)">
<path d="M1071.84 789.497C1002.4 818.822 945 881.351 945 936.463C945 991.575 977.617 1079.76 1108.08 991.575C1238.55 903.396 1119.08 1123.64 1180.57 1156.91C1237.1 1187.5 1292.68 1177.91 1343.65 1138.54C1422.46 1077.67 1398.01 965.323 1343.65 881.351C1282.26 786.514 1175.13 745.879 1071.84 789.497Z" fill="url(#paint6_linear_854_291)"/>
</g>
<circle cx="971.5" cy="388.5" r="82.495" fill="url(#paint7_linear_854_291)" stroke="black" stroke-width="0.01"/>
<circle cx="1174.5" cy="204.5" r="184.495" fill="url(#paint8_radial_854_291)" stroke="black" stroke-width="0.01"/>
<circle cx="1103.5" cy="470.5" r="17.495" fill="url(#paint9_radial_854_291)" stroke="black" stroke-width="0.01"/>
<path d="M620.453 191.62C633.537 164.873 739.883 67.1554 704.585 -10.8566C681.175 -62.5942 613.534 -47.0216 587.976 -97.7324C572.276 -128.884 600.793 -166.951 571.234 -185.476C539.882 -205.125 498.844 -187.479 481.615 -154.735C468.519 -129.846 495.439 -109.441 486.234 -82.8659C462.49 -14.3144 380.369 -130.114 308.004 -135.249C221.012 -141.422 133.883 -167.953 88.6449 -93.3935C28.29 6.08189 258.725 -4.5631 319.986 94.3566C370.704 176.251 328.16 255.951 387.963 331.466C484.393 453.229 688.792 555.653 774.297 425.985C813.771 366.124 861.596 278.403 798.683 244.003C751.02 217.941 737.039 278.504 665.192 283.115C593.345 287.726 607.369 218.366 620.453 191.62Z" fill="url(#paint10_linear_854_291)"/>
<path d="M288 383.682C371.979 412.941 433.154 403.612 503.041 458.606C645.782 570.929 408.033 875.474 584.989 916.437C720.267 947.753 751.252 704.764 887.784 730.056C1023.81 755.254 1103.86 1010.75 1103.86 1010.75" stroke="url(#paint11_linear_854_291)"/>
<path d="M270 416.682C353.979 445.941 415.154 436.612 485.041 491.606C627.782 603.929 390.033 908.474 566.989 949.437C702.267 980.753 733.252 737.764 869.784 763.056C1005.81 788.254 1085.86 1043.75 1085.86 1043.75" stroke="url(#paint12_linear_854_291)"/>
<path d="M979.18 91C979.18 91 939.359 176.684 945.68 233.5C959.242 355.385 1149.56 311.267 1194.18 425.5C1225.72 506.255 1146.72 574.945 1194.18 647.5C1263.68 753.756 1442.8 565.704 1518.68 667.5C1578.08 747.186 1518.68 922 1518.68 922" stroke="url(#paint13_linear_854_291)" stroke-width="2"/>
<path d="M995.18 72C995.18 72 955.359 157.684 961.68 214.5C975.242 336.385 1165.56 292.267 1210.18 406.5C1241.72 487.255 1162.72 555.945 1210.18 628.5C1279.68 734.756 1458.8 546.704 1534.68 648.5C1594.08 728.186 1534.68 903 1534.68 903" stroke="url(#paint14_linear_854_291)" stroke-width="2"/>
<path d="M104.5 361.5C104.5 361.5 229.948 186.383 302 214.5C374.052 242.618 409.485 293.626 486.5 286.5C599.264 276.068 575.127 94.5813 687 77.0005C849.996 51.3855 940.5 415 940.5 415" stroke="url(#paint15_linear_854_291)"/>
<path d="M105 399.792C105 399.792 230.448 224.675 302.5 252.792C374.552 280.91 409.985 331.918 487 324.792C599.764 314.36 575.627 132.873 687.5 115.292C850.496 89.6775 941 453.292 941 453.292" stroke="url(#paint16_linear_854_291)"/>
</g>
<defs>
<filter id="filter0_f_854_291" x="-421.451" y="375.33" width="1333.61" height="1069.46" filterUnits="userSpaceOnUse" color-interpolation-filters="sRGB">
<feFlood flood-opacity="0" result="BackgroundImageFix"/>
<feBlend mode="normal" in="SourceGraphic" in2="BackgroundImageFix" result="shape"/>
<feGaussianBlur stdDeviation="150" result="effect1_foregroundBlur_854_291"/>
</filter>
<filter id="filter1_f_854_291" x="446" y="-580" width="1826" height="1826" filterUnits="userSpaceOnUse" color-interpolation-filters="sRGB">
<feFlood flood-opacity="0" result="BackgroundImageFix"/>
<feBlend mode="normal" in="SourceGraphic" in2="BackgroundImageFix" result="shape"/>
<feGaussianBlur stdDeviation="300" result="effect1_foregroundBlur_854_291"/>
</filter>
<filter id="filter2_f_854_291" x="1212.27" y="610.836" width="960.773" height="619.976" filterUnits="userSpaceOnUse" color-interpolation-filters="sRGB">
<feFlood flood-opacity="0" result="BackgroundImageFix"/>
<feBlend mode="normal" in="SourceGraphic" in2="BackgroundImageFix" result="shape"/>
<feGaussianBlur stdDeviation="1.1" result="effect1_foregroundBlur_854_291"/>
</filter>
<filter id="filter3_f_854_291" x="1219.94" y="-439.21" width="560.146" height="1084.87" filterUnits="userSpaceOnUse" color-interpolation-filters="sRGB">
<feFlood flood-opacity="0" result="BackgroundImageFix"/>
<feBlend mode="normal" in="SourceGraphic" in2="BackgroundImageFix" result="shape"/>
<feGaussianBlur stdDeviation="1.1" result="effect1_foregroundBlur_854_291"/>
</filter>
<filter id="filter4_f_854_291" x="-134" y="-392" width="1323" height="1081" filterUnits="userSpaceOnUse" color-interpolation-filters="sRGB">
<feFlood flood-opacity="0" result="BackgroundImageFix"/>
<feBlend mode="normal" in="SourceGraphic" in2="BackgroundImageFix" result="shape"/>
<feGaussianBlur stdDeviation="150" result="effect1_foregroundBlur_854_291"/>
</filter>
<filter id="filter5_d_854_291" x="81.8" y="487.8" width="1090.4" height="678.4" filterUnits="userSpaceOnUse" color-interpolation-filters="sRGB">
<feFlood flood-opacity="0" result="BackgroundImageFix"/>
<feColorMatrix in="SourceAlpha" type="matrix" values="0 0 0 0 0 0 0 0 0 0 0 0 0 0 0 0 0 0 127 0" result="hardAlpha"/>
<feOffset dy="2"/>
<feGaussianBlur stdDeviation="1.1"/>
<feComposite in2="hardAlpha" operator="out"/>
<feColorMatrix type="matrix" values="0 0 0 0 0 0 0 0 0 0 0 0 0 0 0 0 0 0 0.25 0"/>
<feBlend mode="normal" in2="BackgroundImageFix" result="effect1_dropShadow_854_291"/>
<feBlend mode="normal" in="SourceGraphic" in2="effect1_dropShadow_854_291" result="shape"/>
</filter>
<filter id="filter6_f_854_291" x="545" y="372" width="1249" height="1203" filterUnits="userSpaceOnUse" color-interpolation-filters="sRGB">
<feFlood flood-opacity="0" result="BackgroundImageFix"/>
<feBlend mode="normal" in="SourceGraphic" in2="BackgroundImageFix" result="shape"/>
<feGaussianBlur stdDeviation="200" result="effect1_foregroundBlur_854_291"/>
</filter>
<linearGradient id="paint0_linear_854_291" x1="459.346" y1="1111.49" x2="-12.6017" y2="754.21" gradientUnits="userSpaceOnUse">
<stop stop-color="#FF8B03"/>
<stop offset="1" stop-color="#80FF00"/>
</linearGradient>
<radialGradient id="paint1_radial_854_291" cx="0" cy="0" r="1" gradientUnits="userSpaceOnUse" gradientTransform="translate(1359 333) rotate(90) scale(313)">
<stop stop-color="#80FF00"/>
<stop offset="0.22" stop-color="#95EC00"/>
<stop offset="1" stop-color="#FF8B03"/>
</radialGradient>
<linearGradient id="paint2_linear_854_291" x1="1843.51" y1="672.872" x2="1566.56" y2="1189.09" gradientUnits="userSpaceOnUse">
<stop stop-color="#80FF00"/>
<stop offset="0.365" stop-color="#B3D101"/>
<stop offset="0.685" stop-color="#DEA902"/>
<stop offset="1" stop-color="#FF8B03"/>
</linearGradient>
<linearGradient id="paint3_linear_854_291" x1="1593.56" y1="657.832" x2="1529.73" y2="-446.894" gradientUnits="userSpaceOnUse">
<stop stop-color="#FF8B03"/>
<stop offset="0.275" stop-color="#DFA802"/>
<stop offset="0.63" stop-color="#B1D201"/>
<stop offset="1" stop-color="#80FF00"/>
</linearGradient>
<linearGradient id="paint4_linear_854_291" x1="174.438" y1="303.393" x2="891.965" y2="23.0869" gradientUnits="userSpaceOnUse">
<stop stop-color="#FF8B03"/>
<stop offset="0.275" stop-color="#DFA802"/>
<stop offset="0.63" stop-color="#B1D201"/>
<stop offset="1" stop-color="#80FF00"/>
</linearGradient>
<linearGradient id="paint5_linear_854_291" x1="627" y1="1162" x2="627" y2="488" gradientUnits="userSpaceOnUse">
<stop stop-color="#80FF00"/>
<stop offset="0.365" stop-color="#B3D101"/>
<stop offset="0.685" stop-color="#DEA902"/>
<stop offset="1" stop-color="#FF8B03"/>
</linearGradient>
<linearGradient id="paint6_linear_854_291" x1="1169.5" y1="772" x2="1169.5" y2="1175" gradientUnits="userSpaceOnUse">
<stop stop-color="#80FF00"/>
<stop offset="0.465" stop-color="#C0C502"/>
<stop offset="1" stop-color="#FF8B03"/>
</linearGradient>
<linearGradient id="paint7_linear_854_291" x1="971.5" y1="306" x2="971.5" y2="471" gradientUnits="userSpaceOnUse">
<stop stop-color="#80FF00"/>
<stop offset="0.22" stop-color="#95EC00"/>
<stop offset="1" stop-color="#FF8B03"/>
</linearGradient>
<radialGradient id="paint8_radial_854_291" cx="0" cy="0" r="1" gradientUnits="userSpaceOnUse" gradientTransform="translate(1174.5 204.5) rotate(90) scale(184.5)">
<stop stop-color="#80FF00"/>
<stop offset="0.22" stop-color="#95EC00"/>
<stop offset="1" stop-color="#FF8B03"/>
</radialGradient>
<radialGradient id="paint9_radial_854_291" cx="0" cy="0" r="1" gradientUnits="userSpaceOnUse" gradientTransform="translate(1103.5 470.5) rotate(90) scale(17.5)">
<stop stop-color="#80FF00"/>
<stop offset="0.22" stop-color="#95EC00"/>
<stop offset="1" stop-color="#FF8B03"/>
</radialGradient>
<linearGradient id="paint10_linear_854_291" x1="408.861" y1="454.317" x2="496.588" y2="-200.356" gradientUnits="userSpaceOnUse">
<stop stop-color="#FF8B03"/>
<stop offset="1" stop-color="#80FF00"/>
</linearGradient>
<linearGradient id="paint11_linear_854_291" x1="546.084" y1="288.841" x2="846.172" y2="1105.45" gradientUnits="userSpaceOnUse">
<stop stop-color="white"/>
<stop offset="0.205" stop-color="#84FC01"/>
<stop offset="0.515" stop-color="#92A628"/>
<stop offset="1" stop-color="#F99104"/>
</linearGradient>
<linearGradient id="paint12_linear_854_291" x1="528.084" y1="321.841" x2="828.172" y2="1138.45" gradientUnits="userSpaceOnUse">
<stop stop-color="white"/>
<stop offset="0.205" stop-color="#84FC01"/>
<stop offset="0.515" stop-color="#92A628"/>
<stop offset="1" stop-color="#F99104"/>
</linearGradient>
<linearGradient id="paint13_linear_854_291" x1="1245.04" y1="91" x2="1245.04" y2="922" gradientUnits="userSpaceOnUse">
<stop stop-color="white"/>
<stop offset="0.185" stop-color="#85FB01"/>
<stop offset="1" stop-color="#FB9004"/>
</linearGradient>
<linearGradient id="paint14_linear_854_291" x1="1261.04" y1="72" x2="1261.04" y2="903" gradientUnits="userSpaceOnUse">
<stop stop-color="white"/>
<stop offset="0.185" stop-color="#85FB01"/>
<stop offset="1" stop-color="#FB9004"/>
</linearGradient>
<linearGradient id="paint15_linear_854_291" x1="522.5" y1="75.708" x2="522.5" y2="415" gradientUnits="userSpaceOnUse">
<stop stop-color="white"/>
<stop offset="0.185" stop-color="#85FB01"/>
<stop offset="1" stop-color="#FB9004"/>
</linearGradient>
<linearGradient id="paint16_linear_854_291" x1="523" y1="114" x2="523" y2="453.292" gradientUnits="userSpaceOnUse">
<stop stop-color="white"/>
<stop offset="0.185" stop-color="#85FB01"/>
<stop offset="1" stop-color="#FB9004"/>
</linearGradient>
<clipPath id="clip0_854_291">
<rect width="1980" height="1200" fill="white"/>
</clipPath>
</defs>
</svg>
